<svg id="Capa_1" enable-background="new 0 0 512 512" height="512" viewBox="0 0 512 512" width="512" xmlns="http://www.w3.org/2000/svg"><g><g><g><path d="m373.043 268.526h-122.074c-25.035 0-45.33-20.398-45.33-45.56v-116.06c0-59.043 47.622-106.906 106.367-106.906 58.745 0 106.367 47.863 106.367 106.906v116.06c.001 25.162-20.294 45.56-45.33 45.56z" fill="#e19974"/><path d="m312.007 0c-5.249 0-10.407.389-15.453 1.127 51.421 7.522 90.915 52.012 90.915 105.779v116.06c0 25.162-20.295 45.56-45.331 45.56h30.905c25.035 0 45.33-20.398 45.33-45.56v-116.06c.001-59.043-47.622-106.906-106.366-106.906z" fill="#dc8758"/><g><path d="m457.173 444.867h53.436l-32.311-136.393c-4.749-20.045-20.489-35.592-40.512-40.015l-72.013-15.907-18.27-.622c-8.169-1.804-13.988-9.078-13.988-17.485v-54.528h-43.014v54.528c0 8.406-5.819 15.68-13.988 17.485l-18.27.622-72.014 15.907c-20.023 4.423-35.764 19.97-40.512 40.015l-32.311 136.393" fill="#aee49e"/><g><path d="m345.508 270.355 61.372 13.557c20.023 4.423 35.764 19.97 40.512 40.015l28.65 120.941h34.566l-32.311-136.393c-4.749-20.045-20.489-35.592-40.512-40.015l-72.014-15.907z" fill="#8bd8a5"/></g><path d="m497.355 472.478-72.333 22.068-9.34-45.009 70.871-17.071c11.082-2.669 22.219 4.196 24.875 15.334 2.545 10.672-3.624 21.49-14.073 24.678z" fill="#ffcebf"/><path d="m511.428 447.799c-2.656-11.138-13.793-18.004-24.875-15.334l-14.013 3.375c3.859 2.802 6.786 6.941 7.983 11.959 2.545 10.673-3.624 21.49-14.073 24.678l-43.268 13.2 1.84 8.867 72.333-22.068c10.449-3.186 16.618-14.004 14.073-24.677z" fill="#ffb09e"/></g><g><path d="m126.659 472.478 72.333 22.068 9.34-45.009-70.871-17.071c-11.082-2.669-22.219 4.196-24.875 15.334-2.544 10.672 3.625 21.49 14.073 24.678z" fill="#ffcebf"/></g><path d="m258.241 252.552c12.37 16.239 31.845 26.721 53.766 26.721 21.92 0 41.396-10.482 53.766-26.721l-18.27-.622c-8.169-1.805-13.988-9.079-13.988-17.485v-54.528h-58.467v54.528c0 8.406-5.819 15.68-13.988 17.485z" fill="#ffcebf"/><path d="m332.049 267.382 13.459 2.973c7.882-4.526 14.774-10.596 20.264-17.803l-2.818-.622c-8.169-1.805-13.988-9.079-13.988-17.485v-54.528h-30.905v69.981c0 8.405 5.819 15.679 13.988 17.484z" fill="#ffb09e"/><path d="m390.283 98.026c-6.699-1.931-17.721-6.033-28.841-15.028-9.759-7.893-15.895-16.563-19.575-22.947-1.118-1.939-3.718-2.379-5.399-.906-7.405 6.488-16.704 13.42-28.075 19.626-29.731 16.229-58.1 19.026-74.665 19.254v50.161c0 29.872 16.565 55.856 40.966 69.178 11.091 6.056 22.312 5.639 35.821 5.639 0 0 27.473.48 38.491-5.47 24.571-13.271 41.277-39.348 41.277-69.347z" fill="#ffcebf"/><path d="m361.442 82.998c-9.781-7.911-15.922-16.601-19.599-22.989-1.11-1.928-3.699-2.332-5.372-.865-4.845 4.245-10.518 8.678-17.035 12.976 3.036 3.597 6.696 7.317 11.101 10.879 5.046 4.082 10.072 7.156 14.684 9.477 8.632 4.345 14.158 13.092 14.158 22.755v32.957c.234 4.951.915 30.06-17.976 50.162-26.015 27.683-64.485 19.63-66.355 19.205 7.635 4.001 17.845 7.927 30.18 9.012 2.347.207 4.611.296 6.78.294 43.231 0 78.277-35.223 78.277-78.674v-50.161c-6.701-1.932-17.723-6.034-28.843-15.028z" fill="#ffb09e"/><g><g><path d="m274.239 143.804c-4.268 0-7.726-3.459-7.726-7.726v-15.183c0-4.267 3.459-7.726 7.726-7.726s7.726 3.459 7.726 7.726v15.183c.001 4.267-3.458 7.726-7.726 7.726z" fill="#3f6e90"/></g><g><path d="m349.774 143.804c-4.268 0-7.726-3.459-7.726-7.726v-15.183c0-4.267 3.459-7.726 7.726-7.726s7.726 3.459 7.726 7.726v15.183c0 4.267-3.459 7.726-7.726 7.726z" fill="#3f6e90"/></g></g><g><path d="m312.007 199.874c-.137 0-.273-.001-.41-.002-6.419-.067-12.79-1.746-18.428-4.853-3.736-2.06-5.096-6.76-3.036-10.496 2.06-3.737 6.76-5.098 10.497-3.036 2.376 1.31 6.236 2.882 11.13 2.934.082.001.165.001.246.001 4.994 0 8.935-1.589 11.376-2.935 3.738-2.06 8.436-.701 10.497 3.036 2.059 3.737.7 8.436-3.036 10.496-4.039 2.226-10.562 4.855-18.836 4.855z" fill="#ffb09e"/></g><path d="m399.851 135.164h-9.568v-37.138h9.568c10.23 0 18.522 8.293 18.522 18.522v.094c.001 10.23-8.292 18.522-18.522 18.522z" fill="#ffcebf"/><path d="m224.161 135.164h9.568v-37.138h-9.568c-10.23 0-18.522 8.293-18.522 18.522v.094c0 10.23 8.293 18.522 18.522 18.522z" fill="#ffb09e"/><g><g><g><path d="m184.246 481.095h255.521c5.002 0 9.057 4.612 9.057 10.302v10.302c0 5.69-4.055 10.302-9.057 10.302h-255.521c-5.002 0-9.057-4.612-9.057-10.302v-10.302c0-5.69 4.055-10.302 9.057-10.302z" fill="#355f7f"/><path d="m439.767 481.095h-30.905c5.002 0 9.057 4.612 9.057 10.302v10.302c0 5.69-4.055 10.302-9.057 10.302h30.905c5.002 0 9.057-4.612 9.057-10.302v-10.302c0-5.69-4.055-10.302-9.057-10.302z" fill="#305972"/><g><path d="m421.584 481.095h-219.155c-15.044 0-27.24-12.196-27.24-27.24v-123.028c0-15.044 12.196-27.24 27.24-27.24h219.155c15.044 0 27.24 12.196 27.24 27.24v123.028c0 15.044-12.196 27.24-27.24 27.24z" fill="#3f6e90"/></g><path d="m421.584 303.587h-30.905c15.044 0 27.24 12.196 27.24 27.24v123.028c0 15.044-12.196 27.24-27.24 27.24h30.905c15.044 0 27.24-12.196 27.24-27.24v-123.028c0-15.044-12.196-27.24-27.24-27.24z" fill="#355f7f"/></g></g><ellipse cx="312.006" cy="395.937" fill="#fff" rx="29.435" ry="29.585"/></g></g></g><g><path d="m134.227 222.409h-10.307c-2.33 0-4.218 1.889-4.218 4.218v13.209c0 3.369-3.755 5.378-6.558 3.51l-16.625-19.52c-1.386-.924-3.014-1.417-4.68-1.417h-66.53c-13.978 0-25.309-11.331-25.309-25.308v-61.927c0-13.978 11.331-25.309 25.309-25.309h108.918c13.978 0 25.309 11.331 25.309 25.309v61.927c-.001 13.977-11.332 25.308-25.309 25.308z" fill="#aee49e"/><path d="m134.227 109.865h-30.905c13.977 0 25.308 11.331 25.308 25.309v61.927c0 13.977-11.331 25.309-25.308 25.309h-10.308c-.17 0-.332.03-.497.05 1.425.116 2.805.569 4.001 1.367l16.625 19.52c2.803 1.869 6.558-.141 6.558-3.51v-13.209c0-2.33 1.888-4.218 4.218-4.218h10.307c13.977 0 25.308-11.331 25.308-25.309v-61.927c.001-13.978-11.33-25.309-25.307-25.309z" fill="#8bd8a5"/><g><g><path d="m119.959 158.411h-80.383c-4.267 0-7.726-3.459-7.726-7.726s3.459-7.726 7.726-7.726h80.383c4.267 0 7.726 3.459 7.726 7.726.001 4.267-3.459 7.726-7.726 7.726z" fill="#d5efc8"/></g><g><path d="m119.959 189.316h-80.383c-4.267 0-7.726-3.459-7.726-7.726s3.459-7.726 7.726-7.726h80.383c4.267 0 7.726 3.459 7.726 7.726s-3.459 7.726-7.726 7.726z" fill="#d5efc8"/></g></g></g></g></svg>