<svg id="Layer_1" enable-background="new 0 0 512 512" height="512" viewBox="0 0 512 512" width="512" xmlns="http://www.w3.org/2000/svg"><g><path d="m488 200v272c0 22.197-18.085 40-40 40h-384c-21.951 0-40-17.841-40-40v-272c0-7.301 9.031-10.8 13.95-5.35l136.85 152.06c3.03 3.36 7.36 5.29 11.89 5.29h138.62c4.53 0 8.86-1.93 11.9-5.3l136.84-152.05c4.911-5.442 13.95-1.962 13.95 5.35z" fill="#f1cc76"/><path d="m474.05 194.65-26.05 28.946v248.404c0 22.06-17.94 40-40 40h40c22.06 0 40-17.94 40-40v-272c0-7.301-9.031-10.8-13.95-5.35z" fill="#ebb15d"/><path d="m485.95 205.35-64 71.11c-4.876 5.411-13.95 1.994-13.95-5.35v-135.11c0-7.093 8.606-10.692 13.66-5.66l64 64c3.01 3.01 3.13 7.85.29 11.01z" fill="#aa7569"/><path d="m485.66 194.34-19.5-19.5c3.01 3.01 3.13 7.85.29 11.01l-58.45 64.943v20.317c0 7.342 9.073 10.762 13.95 5.35l64-71.11c2.84-3.16 2.72-8-.29-11.01z" fill="#9a6758"/><path d="m104 136v135.11c0 7.318-9.05 10.787-13.95 5.35l-64-71.11c-2.84-3.16-2.72-8 .29-11.01l64-64c5.046-5.024 13.66-1.443 13.66 5.66z" fill="#aa7569"/><path d="m40.341 180.339-14 14.001c-3.01 3.01-3.13 7.85-.29 11.01l64 71.11c4.876 5.411 13.95 1.994 13.95-5.35v-24c-2.22 0-4.4-.93-5.95-2.65z" fill="#9a6758"/><path d="m158.6 340.52-117.38 164.34c-4.5-3.12-8.33-7.15-11.22-11.82l115.4-161.56c2.49-3.64 7.47-4.58 11.12-2.08 3.64 2.49 4.58 7.47 2.08 11.12z" fill="#ebb15d"/><path d="m482 493.04c-2.89 4.67-6.72 8.7-11.22 11.82l-117.38-164.34c-2.5-3.65-1.56-8.63 2.08-11.12 3.65-2.5 8.63-1.56 11.12 2.08z" fill="#ebb15d"/><path d="m424 24v247.11c0 1.98-.73 3.88-2.05 5.35l-72.85 80.95c-6.07 6.73-14.74 10.59-23.79 10.59h-138.62c-9.05 0-17.72-3.86-23.78-10.58l-72.86-80.96c-1.32-1.47-2.05-3.37-2.05-5.35v-247.11c0-13.23 10.77-24 24-24h288c13.23 0 24 10.77 24 24z" fill="#edebfd"/><g fill="#595965"><path d="m360 88h-208c-4.418 0-8-3.582-8-8s3.582-8 8-8h208c4.418 0 8 3.582 8 8s-3.582 8-8 8z"/><path d="m360 152h-208c-4.418 0-8-3.582-8-8s3.582-8 8-8h208c4.418 0 8 3.582 8 8s-3.582 8-8 8z"/><path d="m360 216h-208c-4.418 0-8-3.582-8-8s3.582-8 8-8h208c4.418 0 8 3.582 8 8s-3.582 8-8 8z"/><path d="m360 280h-208c-4.418 0-8-3.582-8-8s3.582-8 8-8h208c4.418 0 8 3.582 8 8s-3.582 8-8 8z"/></g><path d="m400 0h-40c13.23 0 24 10.77 24 24v247.11c0 1.98-.73 3.88-2.05 5.35l-63.214 70.243c-3.034 3.372-7.357 5.297-11.893 5.297h-104.153c-4.53 0-8.86-1.93-11.89-5.29l-102.8-114.23v38.63c0 1.98.73 3.88 2.05 5.35l72.86 80.96c6.06 6.72 14.73 10.58 23.78 10.58h138.62c9.05 0 17.72-3.86 23.79-10.59l72.85-80.95c1.32-1.47 2.05-3.37 2.05-5.35 0-5.696 0-251.688 0-247.11 0-13.255-10.745-24-24-24z" fill="#d2d2fc"/></g></svg>