<svg id="Capa_1" enable-background="new 0 0 512 512" height="512" viewBox="0 0 512 512" width="512" xmlns="http://www.w3.org/2000/svg"><g><path d="m447.855 254.722h-135.494c-16.463 0-29.809 13.346-29.809 29.809v227.469h169.269v-103.272h21.496c17.717 0 32.08-14.363 32.08-32.08v-64.384c0-31.78-25.762-57.542-57.542-57.542z" fill="#4980ac"/><path d="m333.008 408.728h118.813v29.355h-118.813z" fill="#407194"/><path d="m451.821 254.873v111.549h-71.137v42.306h92.634c2.215 0 4.377-.224 6.465-.652 6.926-1.416 13.466-5.178 18.289-11.023 1.634-1.98 3.036-4.16 4.162-6.498 2.027-4.208 3.163-8.925 3.163-13.908v-64.384c0-30.444-23.648-55.351-53.576-57.39z" fill="#5d91b9"/><path d="m279.34 23.894v105.436h186.185v-48.029c0-38.615-31.304-69.919-69.919-69.919h-58.542c-5.863 0-11.606-1.658-16.567-4.783l-4.585-2.889c-15.886-10.008-36.572 1.409-36.572 20.184z" fill="#be694e"/><path d="m344.181 172.706v87.045c0 13.447 10.901 24.348 24.348 24.348h7.808c13.447 0 24.348-10.901 24.348-24.348v-87.045z" fill="#ebae9d"/><path d="m270.973 129.33c0 13.113 10.63 23.744 23.744 23.744h155.431c13.113 0 23.744-10.63 23.744-23.744s-10.63-23.744-23.744-23.744h-155.431c-13.113 0-23.744 10.63-23.744 23.744z" fill="#ffcdbe"/><path d="m314.787 67.077v99.771c0 30.087 24.39 54.477 54.477 54.477h6.336c30.087 0 54.477-24.39 54.477-54.477v-64.702c0-21.075-17.084-38.159-38.159-38.159h-74.041c-1.706-.001-3.09 1.383-3.09 3.09z" fill="#ffcdbe"/><path d="m373.558 191.79h-2.251c-6.718 0-13.104-2.599-17.98-7.318-2.658-2.572-2.727-6.811-.155-9.468 2.572-2.658 6.812-2.727 9.468-.155 2.365 2.289 5.443 3.549 8.667 3.549h2.251c3.224 0 6.302-1.261 8.666-3.549 2.658-2.572 6.897-2.503 9.468.154 2.572 2.657 2.503 6.896-.154 9.468-4.876 4.72-11.261 7.319-17.98 7.319z" fill="#e09380"/><path d="m354.663 305.512h-212.553c-6.613 0-11.973-5.361-11.973-11.973v-43.407c0-6.613 5.361-11.973 11.973-11.973h212.554c6.613 0 11.973 5.361 11.973 11.973v43.407c-.001 6.612-5.361 11.973-11.974 11.973z" fill="#80b6fc"/><path d="m354.663 238.158h-29.072c6.613 0 11.973 5.361 11.973 11.973v175.407c0 6.613-5.36 11.973-11.973 11.973h29.072c6.613 0 11.973-5.36 11.973-11.973v-175.407c0-6.612-5.36-11.973-11.973-11.973z" fill="#62a4fb"/><path d="m354.662 472.475h-212.552c-6.613 0-11.973-5.36-11.973-11.972v-175.407c0-6.613 5.361-11.973 11.973-11.973h212.553c6.613 0 11.976 5.36 11.976 11.972v175.408c-.001 6.612-5.364 11.972-11.977 11.972z" fill="#ddebfd"/><path d="m366.638 285.095v175.408c0 6.614-5.362 11.973-11.976 11.973h-29.074c6.614 0 11.971-5.361 11.971-11.974v-187.379h17.103c6.614 0 11.976 5.358 11.976 11.972z" fill="#bed9fd"/><path d="m219.43 311.23v59.134c0 3.884 4.26 6.264 7.567 4.226l47.985-29.567c3.146-1.939 3.146-6.513 0-8.452l-47.985-29.567c-3.306-2.038-7.567.341-7.567 4.226z" fill="#df646e"/><path d="m312.971 433.611h-129.169c-3.698 0-6.696-2.998-6.696-6.696s2.998-6.696 6.696-6.696h129.169c3.698 0 6.696 2.998 6.696 6.696s-2.998 6.696-6.696 6.696z" fill="#5d91b9"/><ellipse cx="216.189" cy="426.914" fill="#df646e" rx="16.099" ry="16.099" transform="matrix(.924 -.383 .383 .924 -146.916 115.229)"/><g fill="#ffcdbe"><path d="m380.683 408.728h-23.208c-10.547 0-19.098-8.55-19.098-19.098v-23.208h42.306z"/><path d="m348.68 379.814h-31.455c-3.698 0-6.696-2.998-6.696-6.696s2.998-6.696 6.696-6.696h31.455c3.698 0 6.696 2.998 6.696 6.696s-2.998 6.696-6.696 6.696z"/><path d="m244.486 502.3h-24.601c-6.194 0-11.215-5.021-11.215-11.215v-18.609h47.031v18.609c0 6.194-5.021 11.215-11.215 11.215z"/></g><ellipse cx="113.989" cy="196.792" fill="#f5de46" rx="107.386" ry="108.851"/><path d="m195.775 126.261c6.567 14.088 10.246 29.83 10.246 46.445 0 60.117-48.078 108.851-107.386 108.851-32.761 0-62.089-14.875-81.787-38.319 17.194 36.884 54.224 62.406 97.14 62.406 59.308 0 107.386-48.734 107.386-108.851.001-26.91-9.637-51.534-25.599-70.532z" fill="#ecc52e"/><path d="m64.17 187.971v51.968c0 2.536 1.695 4.75 4.119 5.379l42.981 11.162c1.784.463 3.654.463 5.438 0l42.981-11.162c2.424-.629 4.119-2.843 4.119-5.379v-51.968z" fill="#407194"/><path d="m190.972 185.544-75.419-22.778c-1.021-.308-2.108-.308-3.129 0l-75.419 22.778c-.721.218-1.221.685-1.505 1.248-.008.013-.038.076-.046.094-.171.326-.267.781-.267 1.426v28.905c0 3.698 2.998 6.696 6.696 6.696s6.696-2.998 6.696-6.696v-23.319l63.845 19.282c1.021.308 2.108.308 3.129 0l75.419-22.778c2.383-.719 2.383-4.139 0-4.858z" fill="#5d91b9"/></g></svg>