<?xml version="1.0" encoding="iso-8859-1"?>
<!-- Generator: Adobe Illustrator 19.0.0, SVG Export Plug-In . SVG Version: 6.00 Build 0)  -->
<svg version="1.1" id="Capa_1" xmlns="http://www.w3.org/2000/svg" xmlns:xlink="http://www.w3.org/1999/xlink" x="0px" y="0px"
	 viewBox="0 0 511.999 511.999" style="enable-background:new 0 0 511.999 511.999;" xml:space="preserve">
<path style="fill:#46738C;" d="M67.365,233.43c0,17.95,14.551,32.501,32.501,32.501h331.858c17.95,0,32.501-14.551,32.501-32.501
	V32.501C464.225,14.551,449.674,0,431.724,0H99.866c-17.95,0-32.501,14.551-32.501,32.501V233.43z"/>
<path style="fill:#D2D2D7;" d="M220.666,60.525c-2.217,0-4.394-1.06-5.739-3.028c-2.162-3.165-1.346-7.485,1.819-9.645
	l19.487-13.303c2.162-1.475,4.969-1.61,7.261-0.348l13.404,7.382l17.49-4.39c1.062-0.267,2.172-0.278,3.238-0.034l22.085,5.055
	c3.736,0.855,6.072,4.578,5.217,8.314c-0.855,3.737-4.575,6.071-8.314,5.217l-20.462-4.684l-18.522,4.65
	c-1.701,0.429-3.501,0.194-5.037-0.652l-12.058-6.641l-15.963,10.897C223.375,60.133,222.013,60.525,220.666,60.525z"/>
<path style="fill:#FFFFFF;" d="M323.022,90.424c-3.992,0-7.874-2.067-10.02-5.77l-20.244-34.929
	c-3.203-5.527-1.319-12.605,4.208-15.808c5.526-3.204,12.605-1.319,15.808,4.208l20.244,34.929
	c3.203,5.527,1.319,12.605-4.208,15.808C326.986,89.92,324.99,90.424,323.022,90.424z"/>
<g>
	<path style="fill:#FFB69E;" d="M340.402,59.592c-7.863-7.414-20.249-7.053-27.664,0.811l-42.044,44.583l-71.653,8.378h-37.795
		c-0.046,0-0.091,0.007-0.138,0.007c-26.639,0-55.389,0-66.311,0c-25.8,0-46.893,20.665-47.022,46.066v34.556L47.774,303.27
		c0,10.805,8.76,19.564,19.565,19.564s19.565-8.76,19.565-19.564V193.992v-34.457c0.018-3.636,3.78-7.036,7.892-7.036h0.592v148.363
		h103.63v-148.36l83.296-9.47c4.571-0.534,8.808-2.662,11.965-6.01l46.932-49.766C348.628,79.393,348.264,67.008,340.402,59.592z"/>
	<circle style="fill:#FFB69E;" cx="147.146" cy="55.142" r="40.548"/>
</g>
<g>
	<path style="fill:#414B82;" d="M142.345,293.307v195.214c0,12.967-10.511,23.477-23.477,23.477s-23.478-10.511-23.478-23.477
		V293.307H142.345z"/>
	<path style="fill:#414B82;" d="M199.02,293.307v195.214c0,12.967-10.511,23.477-23.477,23.477s-23.477-10.512-23.477-23.477
		V293.307H199.02z"/>
</g>
<path style="fill:#78BEFF;" d="M243.055,108.217l-44.015,5.147c-9.622,0.001-104.083,0.007-104.243,0.007
	c-25.8,0-46.893,20.665-47.022,46.066v34.556h39.129v-34.457c0.018-3.636,3.78-7.036,7.892-7.036h0.592v148.363h103.63v-148.36
	c13.695-1.558,33.788-3.841,48.662-5.532L243.055,108.217z"/>
<g>
</g>
<g>
</g>
<g>
</g>
<g>
</g>
<g>
</g>
<g>
</g>
<g>
</g>
<g>
</g>
<g>
</g>
<g>
</g>
<g>
</g>
<g>
</g>
<g>
</g>
<g>
</g>
<g>
</g>
</svg>
